<?xml version="1.0" encoding="UTF-8"?>
<svg width="46px" height="45px" viewBox="0 0 46 45" version="1.1" xmlns="http://www.w3.org/2000/svg" xmlns:xlink="http://www.w3.org/1999/xlink">
    <!-- Generator: Sketch 50.2 (55047) - http://www.bohemiancoding.com/sketch -->
    <title>instagram copy</title>
    <desc>Created with Sketch.</desc>
    <defs>
        <linearGradient x1="50%" y1="99.7089109%" x2="50%" y2="0.776721582%" id="linearGradient-1">
            <stop stop-color="#E09B3D" offset="0%"></stop>
            <stop stop-color="#C74C4D" offset="30%"></stop>
            <stop stop-color="#C21975" offset="60%"></stop>
            <stop stop-color="#7024C4" offset="100%"></stop>
        </linearGradient>
        <linearGradient x1="50%" y1="146.098873%" x2="50%" y2="-45.1596833%" id="linearGradient-2">
            <stop stop-color="#E09B3D" offset="0%"></stop>
            <stop stop-color="#C74C4D" offset="30%"></stop>
            <stop stop-color="#C21975" offset="60%"></stop>
            <stop stop-color="#7024C4" offset="100%"></stop>
        </linearGradient>
        <linearGradient x1="50%" y1="658.140556%" x2="50%" y2="-140.029283%" id="linearGradient-3">
            <stop stop-color="#E09B3D" offset="0%"></stop>
            <stop stop-color="#C74C4D" offset="30%"></stop>
            <stop stop-color="#C21975" offset="60%"></stop>
            <stop stop-color="#7024C4" offset="100%"></stop>
        </linearGradient>
    </defs>
    <g id="Page-1" stroke="none" stroke-width="1" fill="none" fill-rule="evenodd">
        <g id="Stijlguide" transform="translate(-1256.000000, -904.000000)" fill-rule="nonzero">
            <g id="instagram-copy" transform="translate(1256.000000, 904.000000)">
                <ellipse id="Oval-Copy-4" fill="#000000" cx="23" cy="22.5" rx="23" ry="22.5"></ellipse>
                <path d="M28.658649,9 L17.341351,9 C12.7419107,9 9,12.7419107 9,17.341351 L9,28.658649 C9,33.2580893 12.7419107,37 17.341351,37 L28.658649,37 C33.2580893,37 37,33.2580893 37,28.658649 L37,17.341351 C36.9999492,12.7419107 33.2580385,9 28.658649,9 Z M34.183201,28.658649 C34.183201,31.7097493 31.7097493,34.183201 28.658649,34.183201 L17.341351,34.183201 C14.2902507,34.183201 11.816799,31.7097493 11.816799,28.658649 L11.816799,17.341351 C11.816799,14.2901999 14.2902507,11.816799 17.341351,11.816799 L28.658649,11.816799 C31.7097493,11.816799 34.183201,14.2901999 34.183201,17.341351 L34.183201,28.658649 Z" id="Shape" fill="url(#linearGradient-1)"></path>
                <path d="M23.5,16 C19.3644934,16 16,19.3645052 16,23.4999737 C16,27.6354422 19.3644934,31 23.5,31 C27.6355066,31 31,27.6354948 31,23.4999737 C31,19.3644525 27.6355066,16 23.5,16 Z M23.5,28.0828115 C20.9689862,28.0828115 18.9172309,26.031049 18.9172309,23.5000263 C18.9172309,20.9690036 20.9690388,18.9172412 23.5,18.9172412 C26.0310138,18.9172412 28.0827691,20.9690036 28.0827691,23.5000263 C28.0827691,26.0309964 26.0309612,28.0828115 23.5,28.0828115 Z" id="Shape" fill="url(#linearGradient-2)"></path>
                <circle id="Oval" fill="url(#linearGradient-3)" cx="29.5" cy="16.5" r="1.5"></circle>
            </g>
        </g>
    </g>
</svg>