<?xml version="1.0" encoding="UTF-8"?>
<svg width="46px" height="45px" viewBox="0 0 46 45" version="1.1" xmlns="http://www.w3.org/2000/svg" xmlns:xlink="http://www.w3.org/1999/xlink">
    <!-- Generator: Sketch 50.2 (55047) - http://www.bohemiancoding.com/sketch -->
    <title>linkedin</title>
    <desc>Created with Sketch.</desc>
    <defs></defs>
    <g id="Page-1" stroke="none" stroke-width="1" fill="none" fill-rule="evenodd">
        <g id="Stijlguide" transform="translate(-1031.000000, -904.000000)" fill-rule="nonzero">
            <g id="linkedin" transform="translate(1031.000000, 904.000000)">
                <ellipse id="Oval" fill="#FFFFFF" cx="23" cy="22.5" rx="23" ry="22.5"></ellipse>
                <path d="M36,24.7132006 L36,34 L30.6405161,34 L30.6405161,25.3355864 C30.6405161,23.1600468 29.8667104,21.6743517 27.9262007,21.6743517 C26.445338,21.6743517 25.5656136,22.6745859 25.177112,23.6430985 C25.0360203,23.9892254 24.9996483,24.4698678 24.9996483,24.9553288 L24.9996483,33.9995985 L19.6397647,33.9995985 C19.6397647,33.9995985 19.7117094,19.3249456 19.6397647,17.8059227 L25.000048,17.8059227 L25.000048,20.1007194 C24.9892563,20.1187887 24.9740679,20.1364564 24.9644753,20.1537226 L25.000048,20.1537226 L25.000048,20.1007194 C25.712301,18.9996988 26.9825254,17.425665 29.8303383,17.425665 C33.3564303,17.425665 36,19.7401372 36,24.7132006 Z M14.0328708,10 C12.1994788,10 11,11.2090346 11,12.7975238 C11,14.3522838 12.1647055,15.5962523 13.9625248,15.5962523 L13.9972981,15.5962523 C15.8666624,15.5962523 17.0289698,14.3522838 17.0289698,12.7975238 C16.9933971,11.2090346 15.8666624,10 14.0328708,10 Z M11.3185553,34 L16.6764405,34 L16.6764405,17.8059227 L11.3185553,17.8059227 L11.3185553,34 Z" id="Shape" fill="#000000"></path>
            </g>
        </g>
    </g>
</svg>