<?xml version="1.0" encoding="UTF-8"?>
<svg width="96px" height="96px" viewBox="0 0 96 96" version="1.1" xmlns="http://www.w3.org/2000/svg" xmlns:xlink="http://www.w3.org/1999/xlink">
    <!-- Generator: Sketch 50.2 (55047) - http://www.bohemiancoding.com/sketch -->
    <title>principle copy</title>
    <desc>Created with Sketch.</desc>
    <defs></defs>
    <g id="Page-1" stroke="none" stroke-width="1" fill="none" fill-rule="evenodd">
        <g id="Stijlguide" transform="translate(-1286.000000, -676.000000)">
            <g id="skills-copy" transform="translate(952.000000, 542.000000)">
                <g id="principle-copy" transform="translate(336.000000, 136.000000)">
                    <circle id="Oval-Copy-3" stroke="#AE21C5" stroke-width="3" cx="46" cy="46" r="46"></circle>
                    <g id="principle" transform="translate(30.000000, 20.000000)" fill="#AE21C5" fill-rule="nonzero">
                        <path d="M18.196539,0 C18.7243307,0 19.2519905,0 19.7797822,0 C19.9729057,0.0379789353 20.1648419,0.0840582729 20.3594165,0.112476078 C21.3194935,0.252705993 22.2939493,0.325609613 23.2385922,0.535024931 C34.8236271,3.10364922 41.2750597,15.9216727 36.3084618,26.7723607 C32.9832816,34.0370936 27.1488152,37.7372512 19.2093819,37.9838487 C16.1067423,38.0802567 13.4774135,35.6651417 13.1708431,32.601065 C12.862426,29.5187955 14.8935205,26.7120725 17.926509,26.0957779 C18.6806668,25.9425343 19.4728161,25.9863561 20.2337015,25.8568825 C23.7902606,25.251477 26.1987637,22.0891331 25.9126402,18.4402338 C25.6358826,14.9108487 22.6429962,12.0923071 19.1199436,12.0433063 C15.1928355,11.9885954 12.0479831,15.1015401 12.0446852,19.0602466 C12.0411235,23.3760347 12.049566,27.6919556 12.0514129,32.0077437 C12.0532597,36.3733293 12.0671107,40.7390478 12.0494341,45.1046335 C12.0380894,47.8956868 10.3927143,50.043223 7.77486204,50.75566 C7.42634274,50.8504745 7.07070003,50.9191288 6.71835519,51 C6.25665286,51 5.79481862,51 5.33311629,51 C5.17402686,50.9621539 5.01572891,50.9199255 4.85545225,50.8872583 C3.92703482,50.698426 3.05283444,50.3862285 2.26174047,49.7639583 C3.67270279,48.5824947 4.25853709,47.117517 3.70766026,45.3603937 C3.1566515,43.6027392 1.82919135,42.7556496 5.86288673e-05,42.5794326 C5.86288673e-05,42.3583315 -7.32860842e-05,42.1629923 5.86288673e-05,41.9676531 C0.00454373722,34.3670854 -0.00244775521,26.7665178 0.0259139594,19.166083 C0.0300033229,18.0603117 0.130126771,16.9431201 0.30913536,15.8515577 C1.61153168,7.91037482 7.95795999,1.58342946 15.8541252,0.319633907 C16.6320276,0.195073622 17.4156024,0.10570361 18.196539,0 Z M19.164399,28.0599263 C17.003764,28.0583328 15.2477121,29.8004505 15.2383462,31.9546263 C15.2291121,34.1048183 16.9822618,35.8697765 19.136433,35.8788064 C21.334268,35.8879692 23.0751496,34.1531551 23.0709283,31.9580789 C23.0665751,29.7837185 21.3405999,28.0615198 19.164399,28.0599263 Z" id="Shape"></path>
                    </g>
                </g>
            </g>
        </g>
    </g>
</svg>