<?xml version="1.0" encoding="UTF-8"?>
<svg width="96px" height="96px" viewBox="0 0 96 96" version="1.1" xmlns="http://www.w3.org/2000/svg" xmlns:xlink="http://www.w3.org/1999/xlink">
    <!-- Generator: Sketch 50.2 (55047) - http://www.bohemiancoding.com/sketch -->
    <title>sketch</title>
    <desc>Created with Sketch.</desc>
    <defs></defs>
    <g id="Page-1" stroke="none" stroke-width="1" fill="none" fill-rule="evenodd">
        <g id="Stijlguide" transform="translate(-950.000000, -676.000000)">
            <g id="skills-copy" transform="translate(952.000000, 542.000000)">
                <g id="sketch" transform="translate(0.000000, 136.000000)">
                    <circle id="Oval-Copy-2" stroke="#FFFFFF" stroke-width="3" cx="46" cy="46" r="46"></circle>
                    <g transform="translate(22.000000, 25.000000)" fill="#FFFFFF" fill-rule="nonzero" id="Shape">
                        <path d="M50,15.7944293 C47.0500696,19.2863716 44.0895094,22.7696097 41.1526246,26.2721551 C36.1897967,32.1908112 31.2440409,38.123394 26.2860447,44.0460065 C25.2201657,45.3193429 24.7743583,45.3161777 23.712989,44.0474308 C16.0559901,34.8941585 8.40205123,25.7385123 0.744085966,16.5858729 C0.512324125,16.3089231 0.248833943,16.0576109 0,15.7944293 C0,15.5032363 0,15.2122016 0,14.9210086 C3.05397361,10.5906204 6.11857702,6.26751206 9.15080786,1.92256424 C9.63543009,1.22813222 10.1851196,0.924120394 11.0599843,0.882024013 C13.6813573,0.755734873 16.296449,0.507429532 18.9162114,0.338885753 C21.1260823,0.196770906 23.346583,-0.0730573967 25.5490453,0.0185734461 C29.9808664,0.202942931 34.4017356,0.627546647 38.831624,0.875851988 C39.788628,0.929501134 40.381481,1.24506573 40.9140983,2.0111882 C43.917822,6.33113141 46.9664807,10.6210058 50,14.9211668 C50,15.2122016 50,15.5032363 50,15.7944293 Z M11.1649938,16.3638383 C15.7981369,24.864775 20.3570324,33.2296106 25.0003221,41.7489051 C29.646994,33.222489 34.2060506,24.8567039 38.834362,16.3638383 C29.534898,16.3638383 20.4564049,16.3638383 11.1649938,16.3638383 Z M12.1538873,14.1715031 C20.8402051,14.1715031 29.2095617,14.1715031 37.8454685,14.1715031 C33.4648637,10.1536726 29.263677,6.30027128 25.0001611,2.38973911 C20.7360009,6.30058779 16.5348142,10.1536726 12.1538873,14.1715031 Z M18.3215869,34.3247495 C18.3571806,34.1030314 18.3786012,34.0610933 18.3657166,34.0371964 C15.2542455,28.3078158 12.1445459,22.5774856 9.01165413,16.8594994 C8.87862057,16.6167331 8.53395738,16.3391502 8.27964748,16.3313956 C6.70595398,16.2828107 5.12984461,16.307024 3.26914652,16.307024 C8.37273875,22.4157468 13.3060931,28.3211094 18.3215869,34.3247495 Z M46.7371347,16.3005355 C45.037011,16.3005355 43.6680217,16.3502282 42.3053136,16.2815446 C41.5153262,16.2416638 41.1196078,16.5478913 40.7660864,17.2026007 C37.8759084,22.5546966 34.9531967,27.8898589 32.0440138,33.2319845 C31.8802183,33.5328312 31.7484732,33.8504531 31.6017497,34.1603204 C31.6499059,34.1875407 31.6979011,34.2147609 31.7458963,34.2421393 C36.6819886,28.3345612 41.618081,22.4271414 46.7371347,16.3005355 Z M11.4049696,2.96215493 C11.1525924,6.19914501 10.9127777,9.277245 10.6728019,12.355345 C10.7576792,12.3844643 10.8427176,12.4135836 10.927595,12.4428611 C14.5509071,9.11661407 18.1743803,5.79052526 21.7976924,2.46427819 C21.7666083,2.38673222 21.7356852,2.309028 21.7046011,2.23148204 C18.3059643,2.47266581 14.9071664,2.71369133 11.4049696,2.96215493 Z M28.2981369,2.2305325 C28.2646369,2.3079202 28.2311369,2.38546617 28.197798,2.46285387 C31.8343169,5.79827986 35.4708357,9.13386409 39.1073545,12.4692901 C39.1824074,12.4208634 39.2572991,12.3724367 39.332352,12.3240101 C39.086417,9.23103393 38.8403211,6.13789952 38.5879439,2.96342098 C35.0994369,2.71495738 31.6987064,2.47266581 28.2981369,2.2305325 Z M3.11114905,14.1840054 C4.9902077,14.1840054 6.63927614,14.1840054 8.38336855,14.1840054 C8.60417848,11.4520136 8.82096196,8.77240495 9.03758439,6.092638 C8.97928155,6.07095678 8.92113977,6.04911731 8.86283693,6.02743609 C6.98168453,8.69501724 5.10053213,11.3627567 3.11114905,14.1840054 Z M41.6172757,14.1833724 C43.40582,14.1833724 45.0463524,14.1833724 46.8883678,14.1833724 C44.9017227,11.3665548 43.0101015,8.68441402 41.1183193,6.00227322 C41.0648482,6.03281683 41.0113771,6.06336045 40.957906,6.0937458 C41.1754948,8.76322604 41.3930835,11.4327063 41.6172757,14.1833724 Z"></path>
                    </g>
                </g>
            </g>
        </g>
    </g>
</svg>